<svg width="700" height="700" viewBox="0 0 700 700" fill="none" xmlns="http://www.w3.org/2000/svg">
<rect width="700" height="700" fill="#1E1E1E"/>
<rect x="1.5" y="1.5" width="697" height="697" rx="148.5" fill="#1C2C45" stroke="#203F63" stroke-width="3"/>
<circle opacity="0.1" cx="350" cy="375" r="221.5" stroke="#D9D9D9"/>
<path d="M220 375C220 466 291 511.5 356.5 511.5C422 511.5 462.283 462 470.5 448.5C478.109 436 470.5 433.833 449 419.5C425.945 404.13 425.42 399.5 413 417C406.917 425.573 388 445.5 356.5 445.5C314.5 445.5 287 409.5 287 374.5C287 337.5 318.497 306 356.5 306C391.5 306 410.5 329 419.5 344.5C428.5 360 432.5 358.5 457 342.5C481.5 326.5 485.5 330.5 470.5 304.5C453.847 275.635 414 239 356.5 239C299 239 220 284 220 375Z" fill="#F5F5F5" stroke="#F5F5F5"/>
<path d="M355.5 512C277 511.5 221.5 452.5 220 386C271 445 350.5 445 354.5 445C372 445 394.873 439.698 409.5 420.5C425.5 399.5 423 401 451.5 420.5C470 433.158 478.5 435 471.5 448C468.32 453.906 428 512.462 355.5 512Z" fill="#C5EEFB" stroke="#C5EEFB" stroke-opacity="0.5"/>
<path d="M355 232.759L355 148.5C364 148.5 383 137 383 116.5C383 97.5 368 83 350.5 83C337 83 317 92.5 317 116.5C317 138 336.5 148.5 344.817 148.5L344.817 232.759C344.817 233.519 345.5 235 347 235L353 235C354.6 235 355 233.506 355 232.759Z" fill="url(#paint0_linear_0_1)"/>
<path d="M425.893 249.37L462.351 183.02C469.437 186.914 489.375 186.08 498.245 169.937C506.466 154.975 500.928 137.067 487.148 129.495C476.517 123.654 456.658 122.481 446.273 141.38C436.97 158.31 447.782 175.015 454.332 178.614L417.874 244.965C417.546 245.563 417.442 247.024 418.624 247.673L423.348 250.269C424.608 250.962 425.57 249.959 425.893 249.37Z" fill="url(#paint1_linear_0_1)"/>
<path d="M472.67 294.238L535.576 252.115C540.075 258.834 558.159 267.27 573.464 257.021C587.649 247.523 590.976 229.075 582.227 216.01C575.478 205.932 558.387 195.749 540.469 207.747C524.418 218.496 526.327 238.303 530.485 244.513L467.579 286.636C467.012 287.015 466.248 288.266 466.998 289.385L469.997 293.865C470.797 295.059 472.112 294.611 472.67 294.238Z" fill="url(#paint2_linear_0_1)"/>
<path d="M273.847 249.37L237.389 183.02C230.303 186.914 210.365 186.08 201.495 169.937C193.274 154.975 198.812 137.067 212.592 129.495C223.223 123.654 243.082 122.481 253.467 141.38C262.77 158.31 251.957 175.015 245.408 178.614L281.866 244.965C282.194 245.563 282.297 247.024 281.116 247.673L276.392 250.269C275.132 250.962 274.17 249.959 273.847 249.37Z" fill="url(#paint3_linear_0_1)"/>
<path d="M225.805 300.238L162.899 258.115C158.399 264.834 140.315 273.27 125.01 263.021C110.825 253.523 107.499 235.075 116.247 222.01C122.996 211.932 140.087 201.749 158.005 213.747C174.057 224.496 172.147 244.303 167.989 250.513L230.895 292.636C231.462 293.015 232.227 294.266 231.477 295.385L228.477 299.865C227.677 301.059 226.362 300.611 225.805 300.238Z" fill="url(#paint4_linear_0_1)"/>
<path d="M208.759 371L124.5 371C124.5 362 113 343 92.5 343C73.5 343 59 358 59 375.5C59 389 68.5 409 92.5 409C114 409 124.5 389.5 124.5 381.183L208.759 381.183C209.519 381.183 211 380.5 211 379L211 373C211 371.4 209.506 371 208.759 371Z" fill="url(#paint5_linear_0_1)"/>
<path d="M226.805 455.024L163.898 497.147C159.399 490.428 141.315 481.992 126.01 492.241C111.825 501.739 108.499 520.187 117.247 533.252C123.996 543.331 141.087 553.513 159.005 541.515C175.057 530.766 173.147 510.959 168.989 504.749L231.895 462.626C232.462 462.247 233.227 460.997 232.477 459.877L229.477 455.397C228.677 454.203 227.362 454.651 226.805 455.024Z" fill="url(#paint6_linear_0_1)"/>
<path d="M282.847 506.879L246.389 573.23C239.303 569.336 219.365 570.17 210.495 586.313C202.274 601.275 207.812 619.183 221.592 626.755C232.223 632.596 252.082 633.769 262.467 614.87C271.77 597.94 260.957 581.234 254.408 577.636L290.866 511.285C291.194 510.687 291.297 509.226 290.116 508.577L285.392 505.98C284.132 505.288 283.17 506.291 282.847 506.879Z" fill="url(#paint7_linear_0_1)"/>
<path d="M420.893 504.879L457.35 571.23C464.437 567.336 484.375 568.17 493.245 584.313C501.466 599.275 495.928 617.183 482.148 624.755C471.517 630.596 451.658 631.769 441.273 612.87C431.97 595.94 442.782 579.234 449.332 575.636L412.874 509.285C412.546 508.687 412.442 507.226 413.624 506.577L418.348 503.98C419.608 503.288 420.57 504.291 420.893 504.879Z" fill="url(#paint8_linear_0_1)"/>
<path d="M474.67 455.024L537.576 497.147C542.075 490.428 560.159 481.992 575.464 492.241C589.649 501.739 592.976 520.187 584.227 533.252C577.478 543.331 560.387 553.513 542.469 541.515C526.418 530.766 528.327 510.959 532.485 504.749L469.579 462.626C469.012 462.247 468.248 460.997 468.998 459.877L471.997 455.397C472.797 454.203 474.112 454.651 474.67 455.024Z" fill="url(#paint9_linear_0_1)"/>
<path d="M491.241 371L575.5 371C575.5 362 587 343 607.5 343C626.5 343 641 358 641 375.5C641 389 631.5 409 607.5 409C586 409 575.5 389.5 575.5 381.183L491.241 381.183C490.481 381.183 489 380.5 489 379L489 373C489 371.4 490.494 371 491.241 371Z" fill="url(#paint10_linear_0_1)"/>
<defs>
<linearGradient id="paint0_linear_0_1" x1="350" y1="83" x2="350" y2="235" gradientUnits="userSpaceOnUse">
<stop stop-color="#0B84A9"/>
<stop offset="1" stop-color="#2FDFB8"/>
</linearGradient>
<linearGradient id="paint1_linear_0_1" x1="486.754" y1="129.279" x2="420.986" y2="248.971" gradientUnits="userSpaceOnUse">
<stop stop-color="#52C760"/>
<stop offset="1" stop-color="#78CA41"/>
</linearGradient>
<linearGradient id="paint2_linear_0_1" x1="469.5" y1="292" x2="580" y2="216" gradientUnits="userSpaceOnUse">
<stop stop-color="#6AC146"/>
<stop offset="1" stop-color="#4AC066"/>
</linearGradient>
<linearGradient id="paint3_linear_0_1" x1="212.986" y1="129.279" x2="278.754" y2="248.971" gradientUnits="userSpaceOnUse">
<stop stop-color="#07AAE5"/>
<stop offset="0.764423" stop-color="#31B56A"/>
</linearGradient>
<linearGradient id="paint4_linear_0_1" x1="74.5" y1="197" x2="231.5" y2="297" gradientUnits="userSpaceOnUse">
<stop stop-color="#0A83A9"/>
<stop offset="1" stop-color="#53C95F"/>
</linearGradient>
<linearGradient id="paint5_linear_0_1" x1="59" y1="376" x2="400.5" y2="376" gradientUnits="userSpaceOnUse">
<stop stop-color="#168AA2"/>
<stop offset="1" stop-color="#77D843"/>
</linearGradient>
<linearGradient id="paint6_linear_0_1" x1="114.5" y1="531.5" x2="247" y2="447" gradientUnits="userSpaceOnUse">
<stop offset="0.389423" stop-color="#2197A8"/>
<stop offset="1" stop-color="#77D843"/>
</linearGradient>
<linearGradient id="paint7_linear_0_1" x1="287.754" y1="507.279" x2="221.986" y2="626.971" gradientUnits="userSpaceOnUse">
<stop stop-color="#1688B4"/>
<stop offset="1" stop-color="#31E7B8"/>
</linearGradient>
<linearGradient id="paint8_linear_0_1" x1="415.986" y1="505.279" x2="431.5" y2="532.5" gradientUnits="userSpaceOnUse">
<stop stop-color="#2C6443"/>
<stop offset="1" stop-color="#77D843"/>
</linearGradient>
<linearGradient id="paint9_linear_0_1" x1="472.5" y1="460.5" x2="527" y2="496" gradientUnits="userSpaceOnUse">
<stop stop-color="#77D843"/>
<stop offset="1" stop-color="#40B77D"/>
</linearGradient>
<linearGradient id="paint10_linear_0_1" x1="477.5" y1="376" x2="594" y2="376" gradientUnits="userSpaceOnUse">
<stop stop-color="#6CDA3E"/>
<stop offset="1" stop-color="#1C91A9"/>
</linearGradient>
</defs>
</svg>
